<svg width="44" height="44" viewBox="0 0 44 44" fill="none" xmlns="http://www.w3.org/2000/svg">
<circle cx="22" cy="22" r="22" fill="#3BB77E"/>
<path d="M19.6959 23.2481C19.6239 23.2481 18.0399 23.2481 17.3199 23.2481C16.9359 23.2481 16.8159 23.1041 16.8159 22.7441C16.8159 21.7841 16.8159 20.8001 16.8159 19.8401C16.8159 19.4561 16.9599 19.3361 17.3199 19.3361H19.6959C19.6959 19.2641 19.6959 17.8721 19.6959 17.2241C19.6959 16.2641 19.8639 15.3521 20.3439 14.5121C20.8479 13.6481 21.5679 13.0721 22.4799 12.7361C23.0799 12.5201 23.6799 12.4241 24.3279 12.4241H26.6799C27.0159 12.4241 27.1599 12.5681 27.1599 12.9041V15.6401C27.1599 15.9761 27.0159 16.1201 26.6799 16.1201C26.0319 16.1201 25.3839 16.1201 24.7359 16.1441C24.0879 16.1441 23.7519 16.4561 23.7519 17.1281C23.7279 17.8481 23.7519 18.5441 23.7519 19.2881H26.5359C26.9199 19.2881 27.0639 19.4321 27.0639 19.8161V22.7201C27.0639 23.1041 26.9439 23.2241 26.5359 23.2241C25.6719 23.2241 23.8239 23.2241 23.7519 23.2241V31.0481C23.7519 31.4561 23.6319 31.6001 23.1999 31.6001C22.1919 31.6001 21.2079 31.6001 20.1999 31.6001C19.8399 31.6001 19.6959 31.4561 19.6959 31.0961C19.6959 28.5761 19.6959 23.3201 19.6959 23.2481V23.2481Z" fill="white"/>
</svg>
