<svg width="45" height="44" viewBox="0 0 45 44" fill="none" xmlns="http://www.w3.org/2000/svg">
<circle cx="22.6665" cy="22" r="22" fill="#3BB77E"/>
<g clip-path="url(#clip0_92_1911)">
<path d="M34.664 17.0685C34.6077 15.791 34.4011 14.9128 34.1052 14.1518C33.7999 13.344 33.3302 12.6208 32.7149 12.0196C32.1137 11.409 31.3857 10.9346 30.5873 10.6341C29.8219 10.3381 28.9482 10.1315 27.6707 10.0752C26.3837 10.0141 25.9752 10 22.711 10C19.4468 10 19.0382 10.0141 17.756 10.0705C16.4785 10.1268 15.6003 10.3335 14.8395 10.6293C14.0315 10.9346 13.3083 11.4042 12.7071 12.0196C12.0965 12.6208 11.6222 13.3488 11.3216 14.1472C11.0256 14.9128 10.819 15.7863 10.7627 17.0637C10.7016 18.3507 10.6875 18.7593 10.6875 22.0235C10.6875 25.2877 10.7016 25.6962 10.758 26.9785C10.8143 28.2559 11.021 29.1342 11.317 29.8952C11.6222 30.703 12.0965 31.4262 12.7071 32.0274C13.3083 32.638 14.0363 33.1124 14.8347 33.4129C15.6003 33.7088 16.4738 33.9154 17.7514 33.9717C19.0335 34.0283 19.4422 34.0422 22.7064 34.0422C25.9706 34.0422 26.3792 34.0283 27.6614 33.9717C28.9388 33.9154 29.8171 33.7088 30.5779 33.4129C32.1937 32.7882 33.4711 31.5108 34.0958 29.8952C34.3916 29.1296 34.5983 28.2559 34.6547 26.9785C34.711 25.6962 34.7251 25.2877 34.7251 22.0235C34.7251 18.7593 34.7203 18.3507 34.664 17.0685ZM32.499 26.8845C32.4472 28.0587 32.25 28.6928 32.0856 29.1155C31.6816 30.1629 30.8504 30.9941 29.803 31.3981C29.3803 31.5625 28.7416 31.7597 27.572 31.8113C26.3039 31.8678 25.9236 31.8817 22.7158 31.8817C19.5079 31.8817 19.1228 31.8678 17.8593 31.8113C16.6851 31.7597 16.0511 31.5625 15.6284 31.3981C15.1071 31.2055 14.6327 30.9002 14.2476 30.501C13.8484 30.1111 13.5431 29.6415 13.3505 29.1202C13.1861 28.6975 12.9889 28.0587 12.9373 26.8893C12.8808 25.6212 12.8669 25.2407 12.8669 22.0328C12.8669 18.825 12.8808 18.4399 12.9373 17.1766C12.9889 16.0024 13.1861 15.3683 13.3505 14.9456C13.5431 14.4242 13.8484 13.95 14.2524 13.5647C14.6421 13.1655 15.1117 12.8602 15.6331 12.6677C16.0558 12.5034 16.6947 12.3061 17.8641 12.2544C19.1322 12.1981 19.5127 12.184 22.7203 12.184C25.933 12.184 26.3133 12.1981 27.5768 12.2544C28.751 12.3061 29.385 12.5034 29.8077 12.6677C30.329 12.8602 30.8034 13.1655 31.1885 13.5647C31.5877 13.9546 31.893 14.4242 32.0856 14.9456C32.25 15.3683 32.4472 16.007 32.499 17.1766C32.5553 18.4447 32.5694 18.825 32.5694 22.0328C32.5694 25.2407 32.5553 25.6164 32.499 26.8845Z" fill="white"/>
<path d="M22.7108 15.8474C19.3011 15.8474 16.5347 18.6137 16.5347 22.0235C16.5347 25.4334 19.3011 28.1997 22.7108 28.1997C26.1207 28.1997 28.8869 25.4334 28.8869 22.0235C28.8869 18.6137 26.1207 15.8474 22.7108 15.8474ZM22.7108 26.0298C20.4988 26.0298 18.7045 24.2357 18.7045 22.0235C18.7045 19.8113 20.4988 18.0172 22.7108 18.0172C24.923 18.0172 26.7171 19.8113 26.7171 22.0235C26.7171 24.2357 24.923 26.0298 22.7108 26.0298Z" fill="white"/>
<path d="M30.5733 15.6032C30.5733 16.3995 29.9277 17.0451 29.1313 17.0451C28.3351 17.0451 27.6895 16.3995 27.6895 15.6032C27.6895 14.8068 28.3351 14.1614 29.1313 14.1614C29.9277 14.1614 30.5733 14.8068 30.5733 15.6032Z" fill="white"/>
</g>
<defs>
<clipPath id="clip0_92_1911">
<rect width="24" height="24.0423" fill="white" transform="translate(10.6665 10)"/>
</clipPath>
</defs>
</svg>
