<svg width="45" height="44" viewBox="0 0 45 44" fill="none" xmlns="http://www.w3.org/2000/svg">
<circle cx="22.3335" cy="22" r="22" fill="#3BB77E"/>
<path d="M31.9334 31.5999V24.5679C31.9334 21.1119 31.1894 18.4719 27.1574 18.4719C25.2134 18.4719 23.9174 19.5279 23.3894 20.5359H23.3414V18.7839H19.5254V31.5999H23.5094V25.2399C23.5094 23.5599 23.8214 21.9519 25.8854 21.9519C27.9254 21.9519 27.9494 23.8479 27.9494 25.3359V31.5759H31.9334V31.5999Z" fill="white"/>
<path d="M13.0454 18.7839H17.0294V31.5999H13.0454V18.7839Z" fill="white"/>
<path d="M15.0374 12.3999C13.7654 12.3999 12.7334 13.4319 12.7334 14.7039C12.7334 15.9759 13.7654 17.0319 15.0374 17.0319C16.3094 17.0319 17.3414 15.9759 17.3414 14.7039C17.3414 13.4319 16.3094 12.3999 15.0374 12.3999Z" fill="white"/>
</svg>
