<svg width="18" height="18" viewBox="0 0 18 18" fill="none" xmlns="http://www.w3.org/2000/svg">
<path fill-rule="evenodd" clip-rule="evenodd" d="M16.2805 0.96967C16.5734 1.26256 16.5734 1.73744 16.2805 2.03033L15.3109 3L17.0305 4.71967C17.3234 5.01256 17.3234 5.48744 17.0305 5.78033L14.4055 8.40533C14.1126 8.69822 13.6378 8.69822 13.3449 8.40533L11.6252 6.68566L9.56538 8.74549C9.79597 9.05735 9.98906 9.39636 10.14 9.7556C10.389 10.3484 10.5183 10.9845 10.5205 11.6275C10.5226 12.2704 10.3976 12.9074 10.1525 13.5018C9.90748 14.0962 9.54727 14.6363 9.09264 15.0909C8.63802 15.5456 8.09795 15.9058 7.50353 16.1508C6.90912 16.3959 6.27211 16.5209 5.62917 16.5188C4.98623 16.5166 4.35007 16.3873 3.75731 16.1383C3.16455 15.8892 2.62691 15.5254 2.17533 15.0678L2.16971 15.0621C1.28169 14.1426 0.790347 12.9112 0.801454 11.633C0.812561 10.3547 1.32526 9.13203 2.22912 8.22817C3.13299 7.3243 4.3557 6.81161 5.63391 6.8005C6.66353 6.79155 7.6628 7.10864 8.49309 7.69645L15.2199 0.96967C15.5128 0.676777 15.9876 0.676777 16.2805 0.96967ZM14.2502 4.06066L12.6859 5.625L13.8752 6.81434L15.4395 5.25L14.2502 4.06066ZM3.2459 14.0171C2.63287 13.3809 2.29372 12.5296 2.3014 11.646C2.30909 10.7611 2.66403 9.91458 3.28978 9.28883C3.91554 8.66308 4.76203 8.30813 5.64694 8.30044C6.53186 8.29275 7.38439 8.63293 8.02092 9.24772C8.3416 9.55743 8.58571 9.9287 8.75706 10.3366C8.92947 10.747 9.01899 11.1874 9.02048 11.6325C9.02197 12.0776 8.9354 12.5186 8.76575 12.9301C8.5961 13.3416 8.34673 13.7155 8.03199 14.0303C7.71724 14.345 7.34335 14.5944 6.93183 14.764C6.52032 14.9337 6.0793 15.0203 5.63419 15.0188C5.18908 15.0173 4.74866 14.9278 4.33829 14.7554C3.92915 14.5835 3.55795 14.3326 3.2459 14.0171ZM3.2459 14.0171L3.24867 14.02L3.24308 14.0142L3.2459 14.0171Z" fill="#ADADAD"/>
</svg>
