<svg width="18" height="18" viewBox="0 0 18 18" fill="none" xmlns="http://www.w3.org/2000/svg">
<path fill-rule="evenodd" clip-rule="evenodd" d="M3 3.75C2.58921 3.75 2.25 4.08921 2.25 4.5V13.5C2.25 13.9108 2.58921 14.25 3 14.25H15C15.4108 14.25 15.75 13.9108 15.75 13.5V4.5C15.75 4.08921 15.4108 3.75 15 3.75H3ZM0.75 4.5C0.75 3.26079 1.76079 2.25 3 2.25H15C16.2392 2.25 17.25 3.26079 17.25 4.5V13.5C17.25 14.7392 16.2392 15.75 15 15.75H3C1.76079 15.75 0.75 14.7392 0.75 13.5V4.5Z" fill="#ADADAD"/>
<path fill-rule="evenodd" clip-rule="evenodd" d="M0.88564 4.0699C1.12318 3.73057 1.59082 3.64804 1.93016 3.88558L9.00006 8.83451L16.07 3.88558C16.4093 3.64804 16.877 3.73057 17.1145 4.0699C17.352 4.40924 17.2695 4.87689 16.9302 5.11442L9.43016 10.3644C9.17192 10.5452 8.82821 10.5452 8.56997 10.3644L1.06997 5.11442C0.730631 4.87689 0.648105 4.40924 0.88564 4.0699Z" fill="#ADADAD"/>
</svg>
