<svg width="18" height="18" viewBox="0 0 18 18" fill="none" xmlns="http://www.w3.org/2000/svg">
<path fill-rule="evenodd" clip-rule="evenodd" d="M1.26436 2.40662L1.32482 2.34344C2.931 0.737115 3.97697 0.311341 5.09298 0.9531C5.41401 1.13771 5.71497 1.39611 6.12421 1.81176L7.37952 3.11344C8.07288 3.87002 8.2305 4.59573 8.00473 5.44562L7.97363 5.55814L7.93911 5.67001L7.77129 6.16237C7.41212 7.26652 7.56207 7.88948 8.83998 9.16707C10.1689 10.4956 10.7892 10.6043 11.9785 10.1887L12.1905 10.1151L12.4468 10.0318L12.559 10.0007C13.4624 9.75967 14.2255 9.952 15.0348 10.7608L16.0462 11.7377L16.3439 12.0306C16.674 12.3672 16.8922 12.6339 17.0533 12.9158C17.6911 14.0315 17.2649 15.0768 15.6124 16.7232L15.4552 16.8825C15.2084 17.1203 14.9779 17.2906 14.6393 17.4514C14.0708 17.7213 13.3993 17.8231 12.6189 17.7145C10.696 17.4471 8.25723 15.9299 5.167 12.8405C4.91544 12.589 4.67451 12.3423 4.44397 12.1005L3.99666 11.6231C-0.194884 7.06912 -0.564664 4.27165 1.15308 2.51717L1.26436 2.40662ZM5.11244 2.56752C4.84095 2.29986 4.64373 2.1367 4.46986 2.03671C4.08526 1.81555 3.67001 1.90904 2.90151 2.57048L2.66004 2.7862C2.61792 2.82508 2.57483 2.86544 2.53075 2.90732L2.25385 3.17701L2.22891 3.20818L2.04119 3.39677C1.58756 3.86012 1.37269 4.42561 1.55785 5.39814C1.86169 6.99399 3.25245 9.15885 6.05077 11.9565C8.9665 14.8715 11.1881 16.2535 12.7911 16.4764C13.7256 16.6064 14.2023 16.3801 14.6884 15.8821L15.0591 15.508C15.2329 15.3261 15.3815 15.1612 15.5069 15.0106L15.678 14.795C16.1152 14.2126 16.1551 13.8633 15.9681 13.5361C15.897 13.4117 15.7935 13.2752 15.6428 13.1084L15.4385 12.8926L15.3175 12.7716L14.0415 11.5394C13.6151 11.1462 13.3237 11.0904 12.8812 11.2084L12.7535 11.2452L12.2249 11.4246C10.6915 11.9198 9.58526 11.6797 7.95621 10.0511C6.26901 8.36429 6.07113 7.23789 6.63645 5.61606L6.67271 5.51184L6.773 5.20969L6.82229 5.01711C6.90971 4.59797 6.8099 4.30573 6.35934 3.85509C6.34078 3.83654 6.32005 3.81563 6.29749 3.79275L5.11244 2.56752Z" fill="#3BB77E"/>
</svg>
