<svg width="44" height="44" viewBox="0 0 44 44" fill="none" xmlns="http://www.w3.org/2000/svg">
<circle cx="22" cy="22" r="22" fill="#3BB77E"/>
<g clip-path="url(#clip0_92_1918)">
<path d="M34 14.5585C33.1075 14.95 32.1565 15.2095 31.165 15.3355C32.185 14.7265 32.9635 13.7695 33.3295 12.616C32.3785 13.183 31.3285 13.5835 30.2095 13.807C29.3065 12.8455 28.0195 12.25 26.6155 12.25C23.8915 12.25 21.6985 14.461 21.6985 17.1715C21.6985 17.5615 21.7315 17.9365 21.8125 18.2935C17.722 18.094 14.1025 16.1335 11.671 13.147C11.2465 13.8835 10.9975 14.7265 10.9975 15.634C10.9975 17.338 11.875 18.8485 13.183 19.723C12.3925 19.708 11.617 19.4785 10.96 19.117C10.96 19.132 10.96 19.1515 10.96 19.171C10.96 21.562 12.6655 23.548 14.902 24.0055C14.5015 24.115 14.065 24.1675 13.612 24.1675C13.297 24.1675 12.979 24.1495 12.6805 24.0835C13.318 26.032 15.127 27.4645 17.278 27.511C15.604 28.8205 13.4785 29.6095 11.1775 29.6095C10.774 29.6095 10.387 29.5915 10 29.542C12.1795 30.9475 14.7625 31.75 17.548 31.75C26.602 31.75 31.552 24.25 31.552 17.749C31.552 17.5315 31.5445 17.3215 31.534 17.113C32.5105 16.42 33.331 15.5545 34 14.5585Z" fill="white"/>
</g>
<defs>
<clipPath id="clip0_92_1918">
<rect width="24" height="24" fill="white" transform="translate(10 10)"/>
</clipPath>
</defs>
</svg>
