<svg width="18" height="18" viewBox="0 0 18 18" fill="none" xmlns="http://www.w3.org/2000/svg">
<path d="M14.9176 17.1975C14.8501 17.1975 14.7826 17.1975 14.7076 17.19C12.2851 16.9275 9.93014 16.0875 7.89764 14.7675C6.00764 13.5675 4.37264 11.9325 3.17264 10.0425C1.85264 8.0025 1.01264 5.64 0.757642 3.2175C0.727642 2.895 0.765142 2.5875 0.862642 2.2875C0.960142 1.9875 1.12514 1.7175 1.33514 1.485C1.54514 1.2525 1.80014 1.0725 2.08514 0.945C2.37764 0.8175 2.68514 0.75 3.00014 0.75H5.25014C5.77514 0.75 6.31514 0.9375 6.73514 1.2975C7.14764 1.65 7.41764 2.145 7.49264 2.685C7.58264 3.3525 7.74764 4.0125 7.98014 4.635C8.13014 5.04 8.16764 5.475 8.07014 5.895C7.98014 6.315 7.77014 6.705 7.47014 7.005L6.93014 7.545C7.81514 8.925 8.98514 10.1025 10.3726 10.9875L10.9126 10.4475C11.2201 10.14 11.6101 9.93 12.0301 9.8475C12.4501 9.7575 12.8851 9.7875 13.2901 9.9375C13.9126 10.17 14.5726 10.335 15.2326 10.425C15.7876 10.5 16.2826 10.7775 16.6426 11.1975C16.9951 11.6175 17.1901 12.15 17.1751 12.6975V14.94C17.1751 15.255 17.1151 15.555 16.9876 15.8475C16.8601 16.1325 16.6726 16.395 16.4476 16.605C16.2151 16.815 15.9451 16.98 15.6451 17.0775C15.4051 17.16 15.1651 17.1975 14.9176 17.1975ZM5.26514 2.25H5.25764H3.00014C2.89514 2.25 2.79764 2.2725 2.70014 2.3175C2.60264 2.355 2.51264 2.415 2.44514 2.49C2.37014 2.565 2.31764 2.655 2.28764 2.76C2.25764 2.8575 2.24264 2.9625 2.25014 3.0675C2.48264 5.25 3.24014 7.38 4.43264 9.2325C5.52014 10.9425 6.99764 12.42 8.70764 13.5075C10.5526 14.7075 12.6826 15.4575 14.8576 15.6975C14.9476 15.705 15.0526 15.69 15.1501 15.66C15.2476 15.63 15.3376 15.57 15.4201 15.5025C15.5026 15.435 15.5626 15.345 15.6001 15.2475C15.6451 15.15 15.6601 15.045 15.6601 14.94V12.69C15.6601 12.6825 15.6601 12.675 15.6601 12.675C15.6676 12.4875 15.6001 12.315 15.4801 12.1725C15.3601 12.03 15.1951 11.94 15.0151 11.9175C14.2501 11.82 13.4851 11.625 12.7501 11.355C12.6151 11.3025 12.4651 11.295 12.3301 11.325C12.1876 11.355 12.0601 11.4225 11.9551 11.5275L11.0101 12.48C10.7701 12.72 10.4026 12.765 10.1101 12.6C8.11514 11.4675 6.46514 9.81 5.32514 7.8225C5.16764 7.5075 5.21264 7.14 5.45264 6.9L6.40514 5.9475C6.50264 5.85 6.57014 5.7225 6.60014 5.58C6.63014 5.4375 6.62264 5.295 6.57014 5.16C6.29264 4.425 6.10514 3.66 6.00014 2.8875C5.97764 2.715 5.88764 2.55 5.75264 2.43C5.61764 2.3175 5.44514 2.25 5.26514 2.25Z" fill="#3BB77E"/>
</svg>
